<?xml version="1.0" encoding="UTF-8"?>
<svg xmlns="http://www.w3.org/2000/svg" version="1.1" viewBox="0 0 595.3 460">
  <defs>
    <style>
      .cls-1 {
        fill: #9c86df;
      }

      .cls-1, .cls-2, .cls-3, .cls-4, .cls-5 {
        stroke-miterlimit: 10;
      }

      .cls-1, .cls-2, .cls-3, .cls-5 {
        stroke: #fff;
      }

      .cls-2, .cls-5 {
        fill: none;
      }

      .cls-3 {
        fill: #fff;
      }

      .cls-3, .cls-5 {
        stroke-width: 2px;
      }

      .cls-4 {
        fill: #325642;
        stroke: #cc62f9;
      }

      .cls-6 {
        display: none;
      }
    </style>
  </defs>
  <!-- Generator: Adobe Illustrator 28.7.1, SVG Export Plug-In . SVG Version: 1.2.0 Build 142)  -->
  <g>
    <g id="Calque_3" class="cls-6">
      <rect class="cls-4" x="-11.1" y="8.7" width="590" height="463.9"/>
    </g>
    <g id="Calque_2">
      <path class="cls-2" d="M301.8,283.7c6.7,5.4,8.2,14.6,4.2,20.9-3.7,5.9-11.3,7.8-16.8,6.4-1.3-.3-4.7-1.1-6.4-4.2-1.5-2.7-1.9-7.1,1-9.3,3.1-2.4,8.7-1,9.7,1.9.8,2.5-2.1,5.3-2.3,5.5"/>
    </g>
    <g id="Calque_1">
      <path class="cls-3" d="M151.4,345.6l9.7,12.5c2.3,2.9.2,7.2-3.5,7.2h-43.4c-3.7,0-5.8-4.3-3.5-7.2l9.7-12.5c.6-.8.9-1.7.9-2.7V61.8c0-1-.3-1.9-.9-2.7l-9.7-12.5c-2.3-2.9-.2-7.2,3.5-7.2h43.4c3.7,0,5.8,4.3,3.5,7.2l-9.7,12.5c-.6.8-.9,1.7-.9,2.7v281c0,1,.3,1.9.9,2.7Z"/>
      <rect class="cls-3" x="180.1" y="39.4" width="30.8" height="325.9"/>
      <path class="cls-5" d="M180.1,40.2c94.5-4.9,127.5,14.5,138.5,35.9,18.3,35.9-24,80.9-3.8,111.5,18.1,27.5,68.1-6.1,110.3,16.7,55.3,29.8,85.3,145,35.9,199.2-55.1,60.6-190.3,24.6-226.9-47.4-20-39.4-17.9-103.8,12.8-117.9,21.8-10.1,50.6,8.6,60.3,15.4"/>
      <ellipse class="cls-1" cx="314.1" cy="274.2" rx="8.8" ry="21.8" transform="translate(-57 84) rotate(-14)"/>
      <ellipse class="cls-1" cx="301.8" cy="274.2" rx="21.8" ry="8.8" transform="translate(-31.1 509.8) rotate(-77.5)"/>
      <ellipse class="cls-1" cx="308.2" cy="274.2" rx="8.8" ry="21.8"/>
    </g>
  </g>
</svg>